<svg xmlns="http://www.w3.org/2000/svg" viewBox="0 0 64 64" role="img" aria-label="Digital and social media">
  <!-- Service 05 · Digital & Social — squared track-frame badge with a squared
       speech box (straight tail) + message dots. -->
  <style>
    .rail{fill:none;stroke:#E8BE3C;stroke-width:1.1}
    .tie{stroke:#E8BE3C;stroke-width:1.1;stroke-linecap:butt}
    .sym{fill:none;stroke:#E8BE3C;stroke-width:1.7;stroke-linejoin:miter;stroke-linecap:round}
    .dot{fill:#E8BE3C}
  </style>
  <rect class="rail" x="4" y="4" width="56" height="56" rx="6"/>
  <rect class="rail" x="8.5" y="8.5" width="47" height="47" rx="4"/>
  <g class="tie">
    <path d="M20 4 L20 8.5 M32 4 L32 8.5 M44 4 L44 8.5"/>
    <path d="M20 55.5 L20 60 M32 55.5 L32 60 M44 55.5 L44 60"/>
    <path d="M4 20 L8.5 20 M4 32 L8.5 32 M4 44 L8.5 44"/>
    <path d="M55.5 20 L60 20 M55.5 32 L60 32 M55.5 44 L60 44"/>
    <path d="M5.8 5.8 L9.7 9.7 M58.2 5.8 L54.3 9.7 M5.8 58.2 L9.7 54.3 M58.2 58.2 L54.3 54.3"/>
  </g>
  <!-- squared speech box with a straight-edged tail -->
  <path class="sym" d="M16 17 L48 17 L48 35 L27 35 L21 42 L21 35 L16 35 Z"/>
  <!-- message dots (squared) -->
  <rect class="dot" x="22.5" y="24.5" width="3" height="3"/>
  <rect class="dot" x="30.5" y="24.5" width="3" height="3"/>
  <rect class="dot" x="38.5" y="24.5" width="3" height="3"/>
</svg>
