<svg xmlns="http://www.w3.org/2000/svg" viewBox="0 0 64 64" role="img" aria-label="Hardware and software resell">
  <!-- Service 06 · Hardware & Software — squared track-frame badge with a CPU/chip
       glyph (body, inner die, pins). -->
  <style>
    .rail{fill:none;stroke:#E8BE3C;stroke-width:1.1}
    .tie{stroke:#E8BE3C;stroke-width:1.1;stroke-linecap:butt}
    .sym{fill:none;stroke:#E8BE3C;stroke-width:1.7;stroke-linejoin:miter;stroke-linecap:round}
  </style>
  <rect class="rail" x="4" y="4" width="56" height="56" rx="6"/>
  <rect class="rail" x="8.5" y="8.5" width="47" height="47" rx="4"/>
  <g class="tie">
    <path d="M20 4 L20 8.5 M32 4 L32 8.5 M44 4 L44 8.5"/>
    <path d="M20 55.5 L20 60 M32 55.5 L32 60 M44 55.5 L44 60"/>
    <path d="M4 20 L8.5 20 M4 32 L8.5 32 M4 44 L8.5 44"/>
    <path d="M55.5 20 L60 20 M55.5 32 L60 32 M55.5 44 L60 44"/>
    <path d="M5.8 5.8 L9.7 9.7 M58.2 5.8 L54.3 9.7 M5.8 58.2 L9.7 54.3 M58.2 58.2 L54.3 54.3"/>
  </g>
  <!-- chip body, inner die, pins -->
  <rect class="sym" x="22" y="22" width="20" height="20"/>
  <rect class="sym" x="28" y="28" width="8" height="8"/>
  <path class="sym" d="M27 17 L27 22 M32 17 L32 22 M37 17 L37 22"/>
  <path class="sym" d="M27 42 L27 47 M32 42 L32 47 M37 42 L37 47"/>
  <path class="sym" d="M17 27 L22 27 M17 32 L22 32 M17 37 L22 37"/>
  <path class="sym" d="M42 27 L47 27 M42 32 L47 32 M42 37 L47 37"/>
</svg>
